<?xml version="1.0" standalone="no"?><!DOCTYPE svg PUBLIC "-//W3C//DTD SVG 1.1//EN" "http://www.w3.org/Graphics/SVG/1.1/DTD/svg11.dtd"><svg t="1763457736676" class="icon" viewBox="0 0 1024 1024" version="1.1" xmlns="http://www.w3.org/2000/svg" p-id="6680" xmlns:xlink="http://www.w3.org/1999/xlink" width="160" height="160"><path d="M330.304 353.28V384H230.016v-30.72h33.696V263.04h-29.216v-23.456c17.056-3.2 28.16-7.488 39.264-14.304h27.936v128h28.576z m2.112 212.064v32h-110.08v-21.76c39.68-36.064 66.336-64.864 66.336-87.904 0-14.496-8.096-22.4-20.672-22.4-10.88 0-19.424 7.264-26.88 15.36l-20.704-20.48c15.584-16.416 30.08-24.544 52.704-24.544 30.72 0 52.064 19.648 52.064 49.92 0 27.328-23.488 57.408-47.808 81.92 7.904-1.056 18.784-2.112 25.824-2.112h29.216z m-59.52 248.32c31.584 0 58.656-16.64 58.656-46.304 0-20.48-12.992-33.28-30.72-38.624v-1.056c17.088-6.816 25.6-19.2 25.6-34.976 0-28.384-21.536-43.744-54.4-43.744-18.752 0-34.56 7.264-49.28 19.616l19.2 23.264c9.6-8.32 17.728-13.216 28.384-13.216 11.744 0 18.144 5.952 18.144 16.832 0 12.608-8.544 20.928-35.648 20.928v26.656c33.28 0 40.544 8.096 40.544 21.76 0 11.936-9.6 18.144-24.32 18.144-12.384 0-23.456-6.208-33.056-15.36l-17.504 23.872c11.52 13.44 29.216 22.208 54.4 22.208z m580.48-497.92V256H384.064v59.744h469.312z m0 226.112v-59.712H384.064v59.712h469.312z m0 166.4V768H384.064v-59.744h469.312z" fill="#FCFCFC" p-id="6681"></path></svg>